<?xml version="1.0" encoding="utf-8"?>
<!-- Generator: Adobe Illustrator 24.1.0, SVG Export Plug-In . SVG Version: 6.00 Build 0)  -->
<svg version="1.1" id="Layer_1" xmlns="http://www.w3.org/2000/svg" xmlns:xlink="http://www.w3.org/1999/xlink" x="0px" y="0px"
	 viewBox="0 0 735.2 1132" style="enable-background:new 0 0 735.2 1132;" xml:space="preserve">
<style type="text/css">
	.st0{fill-rule:evenodd;clip-rule:evenodd;fill:#000;}
</style>
<g>
	<path class="st0" d="M734.9,781.9c-4.2,94.6-27.4,174.4-76.1,234.3c-49.2,60.6-123,99.8-227.8,112.3l0-0.1
		c-53.1,8.2-98.8,2.2-136.5-19.3c-38.1-21.8-66.7-58.9-84.9-112.6c-21.8-57.8-65.4-109.3-108.9-160.8
		c-22.9-27.1-45.8-54.1-66.5-83.1l-0.6-0.9c-25.1-38.7-34.7-72-33.5-99c0.6-15.3,4.6-28.7,11.1-40.1c6.7-11.7,15.9-21.2,27-28.4
		c17.4-11.3,39.2-16.7,62.3-16c24.4-0.9,58.7,26.2,93,53.3l2,1.6V251.1c0-39.6,23.8-65.8,53.8-77.4c10.8-4.2,22.5-6.3,34.1-6.4
		c11.7-0.1,23.3,1.9,34.1,6.1c28.9,11.3,51.3,36.8,51.3,77.7v170.6c8.7-3.4,17.9-5.4,27.2-5.9c13.6-0.7,27.5,1.8,40.4,7.7
		c19.3,8.8,36.1,25,45.6,49.1c3.8-1.7,7.7-3.2,11.6-4.3c14-4.1,28.9-4.4,43.4-1.2c14.1,3.1,27.8,9.6,39.7,19
		c12.2,9.7,22.7,22.7,29.9,38.4c5.4-3,11-5.4,16.7-7.1c14.5-4.3,29.6-4.4,43.9-0.6c14,3.7,27.1,10.9,38.1,21.3
		c19.1,18.1,31.6,45.6,29.7,79.4v163.3L734.9,781.9L734.9,781.9z M617.4,982.6c40.7-50.1,60.3-119,64.1-201.8h-0.1V617.4l0.1-1.8
		c1.2-17.2-4.4-30.6-13.1-38.9c-4.3-4.1-9.4-6.9-14.7-8.3c-5-1.3-10.2-1.3-15.2,0.2c-9.1,2.7-17.9,10.8-24.1,25.3l-51.2-12.3
		c1.9-25.2-7-43.4-19.8-53.6c-5.6-4.4-11.8-7.4-18-8.8c-5.9-1.3-11.7-1.2-17.1,0.3c-9.1,2.6-17.1,10.3-21,23.7l-52.4-7.5v-34.5
		c-3.4-15.4-11.4-24.9-20.8-29.2c-4.8-2.2-10.2-3.1-15.5-2.8c-5.2,0.3-10.3,1.8-14.8,4.3c-8.2,4.8-14.4,14-15.2,27.2l-53.4-1.6
		V251.1c0-15.1-7.4-24.2-17-27.9c-4.5-1.8-9.5-2.6-14.6-2.6c-5.1,0-10.3,1-15.1,2.9c-10.9,4.2-19.5,13.6-19.5,27.6v475.7l-41.7-28.1
		c-13.3-9-30.1-22.2-46.9-35.5c-26.8-21.1-53.1-42.4-53.4-42.4l-7,0.6c-12.9-0.5-24.4,1.9-32.8,7.4c-4,2.6-7.3,5.9-9.6,10
		c-2.4,4.3-3.9,9.6-4.2,15.9c-0.7,16.7,6.4,39,24.5,67.2c19,26.7,41.3,52.9,63.5,79.2c46.7,55.2,93.4,110.3,118.4,177.4l0.3,0.8
		c13.7,40.6,34.2,68,60.9,83.3c27,15.5,61.5,19.4,102.7,12.9l0.9-0.2C514.7,1064.7,577,1032.3,617.4,982.6z"/>
	<path class="st0" d="M734.9,781.9c-4.2,94.6-27.4,174.4-76.1,234.3c-49.2,60.6-123,99.8-227.8,112.3l0-0.1
		c-53.1,8.2-98.8,2.2-136.5-19.3c-38.1-21.8-66.7-58.9-84.9-112.6c-21.8-57.8-65.4-109.3-108.9-160.8
		c-22.9-27.1-45.8-54.1-66.5-83.1l-0.6-0.9c-25.1-38.7-34.7-72-33.5-99c0.6-15.3,4.6-28.7,11.1-40.1c6.7-11.7,15.9-21.2,27-28.4
		c17.4-11.3,39.2-16.7,62.3-16c24.4-0.9,58.7,26.2,93,53.3l2,1.6V251.1c0-39.6,23.8-65.8,53.8-77.4c10.8-4.2,22.5-6.3,34.1-6.4
		c11.7-0.1,23.3,1.9,34.1,6.1c28.9,11.3,51.3,36.8,51.3,77.7v170.6c8.7-3.4,17.9-5.4,27.2-5.9c13.6-0.7,27.5,1.8,40.4,7.7
		c19.3,8.8,36.1,25,45.6,49.1c3.8-1.7,7.7-3.2,11.6-4.3c14-4.1,28.9-4.4,43.4-1.2c14.1,3.1,27.8,9.6,39.7,19
		c12.2,9.7,22.7,22.7,29.9,38.4c5.4-3,11-5.4,16.7-7.1c14.5-4.3,29.6-4.4,43.9-0.6c14,3.7,27.1,10.9,38.1,21.3
		c19.1,18.1,31.6,45.6,29.7,79.4v163.3L734.9,781.9L734.9,781.9z M617.4,982.6c40.7-50.1,60.3-119,64.1-201.8h-0.1V617.4l0.1-1.8
		c1.2-17.2-4.4-30.6-13.1-38.9c-4.3-4.1-9.4-6.9-14.7-8.3c-5-1.3-10.2-1.3-15.2,0.2c-9.1,2.7-17.9,10.8-24.1,25.3l-51.2-12.3
		c1.9-25.2-7-43.4-19.8-53.6c-5.6-4.4-11.8-7.4-18-8.8c-5.9-1.3-11.7-1.2-17.1,0.3c-9.1,2.6-17.1,10.3-21,23.7l-52.4-7.5v-34.5
		c-3.4-15.4-11.4-24.9-20.8-29.2c-4.8-2.2-10.2-3.1-15.5-2.8c-5.2,0.3-10.3,1.8-14.8,4.3c-8.2,4.8-14.4,14-15.2,27.2l-53.4-1.6
		V251.1c0-15.1-7.4-24.2-17-27.9c-4.5-1.8-9.5-2.6-14.6-2.6c-5.1,0-10.3,1-15.1,2.9c-10.9,4.2-19.5,13.6-19.5,27.6v475.7l-41.7-28.1
		c-13.3-9-30.1-22.2-46.9-35.5c-26.8-21.1-53.1-42.4-53.4-42.4l-7,0.6c-12.9-0.5-24.4,1.9-32.8,7.4c-4,2.6-7.3,5.9-9.6,10
		c-2.4,4.3-3.9,9.6-4.2,15.9c-0.7,16.7,6.4,39,24.5,67.2c19,26.7,41.3,52.9,63.5,79.2c46.7,55.2,93.4,110.3,118.4,177.4l0.3,0.8
		c13.7,40.6,34.2,68,60.9,83.3c27,15.5,61.5,19.4,102.7,12.9l0.9-0.2C514.7,1064.7,577,1032.3,617.4,982.6z"/>
	<path class="st0" d="M315.2,499.1c0-14.8,12-26.8,26.8-26.8c14.8,0,26.8,12,26.8,26.8v114.3c0,14.8-12,26.8-26.8,26.8
		c-14.8,0-26.8-12-26.8-26.8V499.1z"/>
	<path class="st0" d="M434.9,535.7c0-14.8,12-26.8,26.8-26.8c14.8,0,26.8,12,26.8,26.8v125.5c0,14.8-12,26.8-26.8,26.8
		c-14.8,0-26.8-12-26.8-26.8V535.7z"/>
	<path class="st0" d="M563.1,583.6c0-14.8,12-26.8,26.8-26.8c14.8,0,26.8,12,26.8,26.8v125.5c0,14.8-12,26.8-26.8,26.8
		c-14.8,0-26.8-12-26.8-26.8V583.6z"/>
	<path class="st0" d="M148.9,413.2c-19.7-16.2-36.2-35.8-48.8-57.6c-18.3-31.7-28.4-68-28.4-105.8c0-58.4,23.7-111.3,62-149.6
		c38.3-38.3,91.2-62,149.6-62c58.4,0,111.3,23.7,149.6,62c38.3,38.3,62,91.2,62,149.6c0,37.7-10.1,74.1-28.4,105.8
		c-6.9,11.9-14.9,23.2-24,33.6c-8.7-3.2-17.7-5.5-26.8-6.6c11.7-11.7,21.8-24.8,30-39c16.2-28,25.1-60.2,25.1-93.7
		c0-51.7-21-98.6-54.9-132.5C382,83.4,335.1,62.4,283.4,62.4c-51.7,0-98.6,21-132.5,54.9C116.9,151.2,96,198.1,96,249.8
		c0,33.5,8.9,65.8,25.1,93.7c9.9,17.2,22.6,32.8,37.6,46.2L148.9,413.2L148.9,413.2z M161.3,332.1v-22.2l-0.4-0.8
		c-11.1-20.2-17.1-43.2-17.1-67.1c0-38.6,15.6-73.5,40.9-98.7c25.3-25.3,60.2-40.9,98.7-40.9c38.6,0,73.5,15.6,98.7,40.9
		c25.3,25.3,40.9,60.2,40.9,98.7c0,23.3-5.8,45.8-16.4,65.7c-1.2,2.2-2.4,4.4-3.8,6.6v21.2c5.4-7,10.2-14.4,14.4-22.1
		c11.6-21.7,17.9-46.1,17.9-71.4c0-41.9-17-79.8-44.4-107.3c-27.5-27.5-65.4-44.4-107.3-44.4c-41.9,0-79.8,17-107.3,44.4
		c-27.5,27.5-44.4,65.4-44.4,107.3c0,25.9,6.6,50.9,18.7,72.9v0C153.6,320.8,157.3,326.6,161.3,332.1L161.3,332.1z M133.8,449.5
		l4.8-11.5c-26.4-20.3-47.9-45.6-63.5-74.2c-18.9-34.4-29.2-73.6-29.2-114.1c0-65.6,26.6-125,69.6-168c43-43,102.4-69.6,168-69.6
		c65.6,0,125,26.6,168,69.6c43,43,69.6,102.4,69.6,168c0,39.6-9.9,77.9-27.9,111.8c-7.5,14.1-16.4,27.4-26.7,39.8
		c3.4,2.2,6.6,4.6,9.8,7.1c10.5-12.8,19.8-26.6,27.5-41.2c19-35.7,29.4-75.9,29.4-117.5c0-68.9-27.9-131.3-73.1-176.5
		C414.7,27.9,352.3,0,283.4,0C214.4,0,152,27.9,106.8,73.1c-45.2,45.2-73.1,107.6-73.1,176.5c0,42.6,10.9,83.7,30.7,119.9
		C81.4,400.5,104.9,427.8,133.8,449.5z"/>
</g>
</svg>
